<svg width="655" height="643" viewBox="0 0 655 643" fill="none" xmlns="http://www.w3.org/2000/svg">
<path d="M327.5 4.55371C505.938 4.55371 650.446 146.534 650.446 321.5C650.446 496.466 505.938 638.446 327.5 638.446C149.062 638.446 4.55371 496.466 4.55371 321.5C4.55371 146.534 149.062 4.55371 327.5 4.55371Z" fill="white" stroke="#334151" stroke-width="9.10765"/>
<rect x="263" y="487" width="129" height="34" rx="5" fill="#334151"/>
<rect x="233" y="527" width="190" height="33" rx="5" fill="black"/>
<rect x="233" y="527" width="190" height="33" rx="5" fill="#334151"/>
<rect x="273" y="200" width="110" height="281" fill="#334151"/>
<rect x="238.5" y="172.5" width="179" height="21" rx="10.5" fill="#334151" stroke="#334151"/>
<path d="M328 49.6924C341.452 49.6924 352.308 60.1539 352.308 73C352.308 85.8461 341.452 96.3076 328 96.3076C314.548 96.3076 303.692 85.8461 303.692 73C303.692 60.1539 314.548 49.6924 328 49.6924Z" fill="#334151" stroke="#334151" stroke-width="1.38462"/>
<circle cx="367.5" cy="139.5" r="23.8077" fill="#334151" stroke="#334151" stroke-width="1.38462"/>
<circle cx="288.5" cy="139.5" r="23.8077" fill="#334151" stroke="#334151" stroke-width="1.38462"/>
<path d="M277.164 118.704C294.328 110.475 304.888 92.9879 304.082 74.3223L324.878 83.5416L341.948 92.5659L337.229 94.6713C322.077 101.432 312.204 116.164 311.81 132.454L276.847 118.856L277.164 118.704Z" fill="#334151" stroke="#334151" stroke-width="1.38462"/>
<path d="M316.656 93.8746C333.82 102.103 344.38 119.59 343.575 138.256L364.37 129.037L380.946 120.524L376.469 118.414C361.411 111.318 351.689 96.4717 351.302 80.1238L316.339 93.7222L316.656 93.8746Z" fill="#334151" stroke="#334151" stroke-width="1.38462"/>
</svg>
